<?xml version="1.0" encoding="utf-8"?>
<svg viewBox="0 0 500 500" xmlns="http://www.w3.org/2000/svg" xmlns:bx="https://boxy-svg.com">
  <defs>
    <bx:grid x="-2.067" y="17.224" width="100" height="100"/>
  </defs>
  <g id="layer1" transform="matrix(3.625101, 0, 0, 3.625101, -150.094559, -73.351036)" style="">
    <path id="path916-4-0-6" style="fill:none;fill-opacity:1;stroke:#000000;stroke-width:2.13100004;stroke-linecap:round;stroke-linejoin:round;stroke-miterlimit:4;stroke-dasharray:none;stroke-opacity:1" d="m 147.64865,134.98316 c 3.3626,-0.56451 6.01589,-1.68667 8.62448,-3.64759 4.33624,-3.2596 6.4481,-8.80922 5.09181,-13.38044 -0.71734,-2.41778 -1.65926,-3.93363 -3.70247,-5.95855 -2.18357,-2.16404 -4.3559,-3.44109 -7.55005,-4.43846 -4.26821,-0.79492 -8.48618,-1.19353 -12.31883,0.13074 -3.01051,1.04861 -5.20668,2.36627 -7.21102,4.32651 l -1.76481,1.72594 -56.798342,-77.842431 v 0 c -25.126076,18.85766 -3.45293,56.857198 14.81303,60.859408 -11.23929,-7.95559 -17.0173,-29.826308 -8.55814,-38.278508 l 44.431622,61.796311 c 7.09823,9.87674 12.0453,16.69034 24.94272,14.70707 z"/>
    <path style="fill:#000000;fill-opacity:1;stroke:#000000;stroke-width:2.13100004;stroke-linecap:round;stroke-linejoin:round;stroke-miterlimit:4;stroke-dasharray:none;stroke-opacity:1" d="m 150.38678,35.898826 c 25.12609,18.857654 3.45292,56.857124 -14.81305,60.859334 11.23929,-7.95559 17.0173,-29.82608 8.55814,-38.27828 l -24.4383,35.230397 -5.31544,-7.28431 z m -47.67409,64.161454 5.31544,7.39283 -8.327657,12.82299 c -7.09823,9.87674 -12.04524,16.69039 -24.94266,14.70711 -3.3626,-0.5645 -6.01621,-1.68641 -8.6248,-3.64732 -4.33624,-3.25961 -6.44796,-8.80936 -5.09168,-13.38058 0.71735,-2.41777 1.65941,-3.93389 3.70262,-5.9588 2.18357,-2.16403 4.35577,-3.44113 7.54992,-4.43849 4.26822,-0.79493 8.48598,-1.19353 12.31863,0.13074 3.01051,1.04861 5.20658,2.36662 7.21093,4.32686 l 1.76527,1.726 z" id="path916-4-6"/>
  </g>
</svg>